<?xml version="1.0" encoding="UTF-8"?>
<!-- Generator: visioncortex VTracer 0.6.3 -->
<svg version="1.1" xmlns="http://www.w3.org/2000/svg" width="729" height="1280">
<path d="M0 0 C4.55 1.95 6.26 5.18 8.69 9.31 C12.66 15.9 16.87 22.2 21.38 28.43 C23 31 23 31 23 34 C23.66 34 24.32 34 25 34 C25.62 35.16 26.24 36.31 26.88 37.5 C29.29 41.85 31.9 46.05 34.56 50.25 C40.13 59.07 45.28 68.1 50.41 77.18 C52.04 80.08 53.69 82.97 55.34 85.86 C67.19 106.68 78.17 127.82 88.41 149.47 C90.69 154.29 93.02 159.07 95.44 163.81 C97.29 167.47 98.87 171.1 100.23 174.96 C101.16 177.42 102.26 179.75 103.38 182.12 C105.86 187.5 107.8 192.99 109.74 198.58 C111.2 202.54 112.92 206.32 114.79 210.11 C116.19 213.45 117.19 216.81 118.21 220.28 C118.99 222.97 119.81 225.64 120.65 228.3 C124.24 239.87 127.51 251.46 130.33 263.24 C131.17 266.71 132.04 270.17 132.91 273.64 C134.89 281.54 136.82 289.45 138.69 297.38 C138.85 298.08 139.02 298.78 139.19 299.51 C142.19 312.25 145 325.02 147.75 337.81 C147.93 338.67 148.12 339.52 148.31 340.41 C151.07 353.24 153.59 366.1 156 379 C158.8 375.43 160.52 371.73 162.25 367.56 C164.47 362.32 166.84 357.29 169.62 352.31 C173.07 346.07 175.58 339.7 178 333 C178.77 330.91 179.55 328.82 180.34 326.73 C180.85 325.37 181.35 324.01 181.86 322.64 C183.03 319.5 184.25 316.41 185.59 313.34 C186.76 310.56 187.7 307.9 188.5 305 C189.27 302.21 190.14 299.69 191.34 297.04 C193.82 291.35 195.38 285.32 197.12 279.38 C197.92 276.69 198.72 274 199.52 271.31 C199.72 270.62 199.93 269.94 200.14 269.23 C203.31 258.56 206.65 247.94 209.97 237.31 C211.66 231.88 213.33 226.44 215 221 C216.89 221.29 216.89 221.29 219 222 C220.35 224.63 221.41 227.09 222.43 229.86 C222.73 230.66 223.04 231.47 223.36 232.3 C224.36 234.92 225.34 237.55 226.31 240.19 C226.99 241.98 227.67 243.78 228.34 245.57 C232.47 256.54 236.35 267.55 239.7 278.78 C240.52 281.51 241.41 284.17 242.44 286.82 C244.46 292.09 246.09 297.48 247.75 302.88 C248.27 304.56 248.27 304.56 248.8 306.28 C251.63 315.56 254.2 324.9 256.65 334.28 C258.05 339.6 259.57 344.82 261.35 350.02 C262.25 352.77 262.89 355.55 263.5 358.38 C264.4 362.41 265.36 366.4 266.5 370.38 C268.13 376.19 269.24 382.07 270.35 388.01 C270.69 390.87 270.69 390.87 272 392 C272.63 395.15 273.19 398.31 273.72 401.48 C274.38 405.24 275.22 408.81 276.39 412.44 C278.72 419.98 280 427.76 281.44 435.5 C281.59 436.31 281.74 437.13 281.9 437.97 C284.06 449.47 286.02 460.99 287.72 472.58 C288.51 477.95 289.41 483.25 290.56 488.56 C292.62 498.33 293.55 508.26 294.67 518.17 C294.94 520.46 295.22 522.75 295.53 525.04 C300.62 562.97 302.89 601.74 302 640 C301.98 641.09 301.96 642.18 301.94 643.31 C301.66 658.38 300.86 673.36 299.56 688.38 C299.5 689.09 299.44 689.81 299.38 690.55 C298.16 704.56 296.67 718.48 293.77 732.26 C293.01 735.95 292.34 739.66 291.69 743.38 C285.03 779.87 285.03 779.87 278.44 794.75 C277.24 797.45 276.42 799.92 275.62 802.75 C274.27 807.44 272.39 811.7 270.3 816.11 C268.97 819.07 267.85 822.07 266.75 825.12 C263.85 832.8 259.99 839.89 256.06 847.07 C255.14 848.75 254.23 850.42 253.33 852.11 C251.91 854.75 250.46 857.38 249 860 C248.48 860.94 247.96 861.88 247.43 862.84 C237.85 879.77 225.63 895.34 212.31 909.48 C210.01 911.89 210.01 911.89 208.31 914.34 C207.88 914.89 207.45 915.43 207 916 C206.34 916 205.68 916 205 916 C205 916.66 205 917.32 205 918 C204.34 918 203.68 918 203 918 C203 918.66 203 919.32 203 920 C202.34 920 201.68 920 201 920 C201 920.66 201 921.32 201 922 C199.46 923.55 199.46 923.55 197.38 925.31 C196.65 925.93 195.92 926.54 195.17 927.18 C194.46 927.78 193.74 928.38 193 929 C192.41 929.52 191.81 930.04 191.2 930.57 C187.24 934 187.24 934 185 934 C185 934.66 185 935.32 185 936 C171.37 947.92 154.95 957.56 139 966 C138.37 966.33 137.74 966.67 137.09 967.01 C128.93 971.31 120.59 975.15 112.12 978.81 C111.27 979.19 110.41 979.56 109.53 979.94 C104.48 982.1 99.45 983.87 94.16 985.34 C91.75 986.03 91.75 986.03 88.62 987.5 C84.32 989.28 80.01 990.31 75.48 991.35 C73.07 991.76 73.07 991.76 72 993 C70.33 993.04 68.67 993.04 67 993 C72.69 1006.56 78.67 1019.83 85.76 1032.73 C86.64 1034.34 87.5 1035.96 88.35 1037.59 C92.62 1045.65 97.7 1053.01 102.96 1060.45 C103.61 1061.39 104.26 1062.32 104.93 1063.28 C105.52 1064.12 106.11 1064.95 106.72 1065.81 C108 1068 108 1068 108 1071 C108.66 1071 109.32 1071 110 1071 C110.96 1072.89 111.92 1074.79 112.88 1076.69 C113.41 1077.74 113.94 1078.8 114.49 1079.89 C118.47 1088.09 120.32 1097.2 118.38 1106.31 C115.26 1114.67 111.4 1120.8 104 1126 C98.18 1127.94 93.63 1127.58 88.12 1125.06 C63.67 1111.75 49.41 1081.17 36 1058 C35.97 1059.56 35.95 1061.12 35.94 1062.69 C35.92 1063.99 35.92 1063.99 35.9 1065.32 C35.92 1067.91 35.92 1067.91 36.45 1070.05 C37.24 1074.28 37.55 1078.53 37.9 1082.82 C37.98 1083.78 38.07 1084.75 38.15 1085.74 C38.42 1088.87 38.68 1092 38.94 1095.12 C39.12 1097.29 39.3 1099.45 39.48 1101.61 C39.99 1107.74 40.5 1113.87 41 1120 C41.09 1121.12 41.09 1121.12 41.19 1122.27 C41.77 1129.39 42.3 1136.5 42.77 1143.63 C42.93 1146.01 43.1 1148.39 43.27 1150.77 C44.71 1170.57 45.21 1190.33 45.25 1210.19 C45.26 1211.3 45.26 1212.41 45.27 1213.55 C45.41 1253.38 45.41 1253.38 37 1266 C36.34 1266 35.68 1266 35 1266 C35 1266.66 35 1267.32 35 1268 C25.76 1275.43 17.2 1280.84 5.03 1280.47 C-1.08 1279.52 -5.71 1276.6 -9.78 1271.98 C-11.37 1269.73 -12.71 1267.44 -14 1265 C-14.42 1264.25 -14.83 1263.49 -15.26 1262.71 C-23.41 1246.49 -26.34 1227.49 -29.69 1209.81 C-30.25 1206.85 -30.82 1203.88 -31.4 1200.91 C-31.75 1199.1 -32.1 1197.28 -32.44 1195.46 C-33.45 1190.22 -34.77 1185.2 -36.42 1180.13 C-37 1178 -37 1178 -37 1175 C-38.32 1175 -39.64 1175 -41 1175 C-41.07 1175.62 -41.14 1176.24 -41.21 1176.89 C-42.48 1187.96 -43.82 1199 -46 1209.94 C-46.15 1210.72 -46.31 1211.51 -46.47 1212.31 C-47.44 1217.01 -48.75 1221.5 -50.32 1226.03 C-51.07 1228.21 -51.7 1230.4 -52.31 1232.62 C-55.16 1242.19 -58.9 1251.42 -64 1260 C-64.66 1260 -65.32 1260 -66 1260 C-66.1 1260.58 -66.21 1261.15 -66.31 1261.75 C-67.11 1264.36 -68.19 1265.97 -70 1268 C-70.66 1268 -71.32 1268 -72 1268 C-72.34 1268.88 -72.34 1268.88 -72.69 1269.77 C-74.36 1272.61 -76.27 1273.86 -79 1275.69 C-80.33 1276.59 -80.33 1276.59 -81.69 1277.51 C-86.85 1280.84 -91.72 1280.3 -97.75 1280.38 C-98.84 1280.41 -99.92 1280.45 -101.04 1280.49 C-110.03 1280.59 -110.03 1280.59 -113.52 1277.83 C-126.54 1262.99 -130.49 1243.91 -134 1225 C-134.22 1223.89 -134.43 1222.78 -134.65 1221.63 C-135.83 1215.15 -136.39 1208.71 -136.75 1202.13 C-136.93 1199.11 -136.93 1199.11 -137.48 1196.62 C-142.21 1172.71 -140.42 1146.61 -140.6 1122.36 C-140.64 1117.11 -140.69 1111.87 -140.74 1106.62 C-140.84 1096.42 -140.92 1086.21 -141 1076 C-142.44 1078.71 -143.87 1081.42 -145.31 1084.14 C-145.91 1085.28 -145.91 1085.28 -146.53 1086.45 C-148.27 1089.73 -150.01 1093.01 -151.74 1096.3 C-160.17 1112.28 -171.08 1128.92 -188.44 1136 C-194.88 1137.9 -200.59 1136.29 -206.38 1133.19 C-212.36 1128.2 -215.03 1123.22 -215.84 1115.49 C-216.63 1103.03 -216.2 1090.64 -212.94 1078.57 C-212.21 1075.8 -211.54 1073.04 -210.9 1070.24 C-208.86 1061.27 -206.65 1052.4 -203.88 1043.62 C-203.63 1042.86 -203.39 1042.09 -203.14 1041.3 C-201.67 1036.75 -199.9 1032.4 -198 1028 C-197.13 1025.53 -196.28 1023.05 -195.44 1020.56 C-191.51 1009.16 -186.72 998.09 -182 987 C-182.65 986.81 -183.3 986.62 -183.98 986.42 C-215.21 977.17 -244.25 961.11 -271.12 942.94 C-272.17 942.24 -272.17 942.24 -273.23 941.53 C-274.86 940.41 -276.43 939.21 -278 938 C-278 937.34 -278 936.68 -278 936 C-278.72 935.75 -279.44 935.5 -280.19 935.25 C-283.28 933.88 -285.51 932.28 -288 930 C-288 929.34 -288 928.68 -288 928 C-288.55 927.75 -289.1 927.5 -289.67 927.25 C-292.45 925.76 -294.78 923.96 -297.25 922 C-298.14 921.3 -299.03 920.6 -299.95 919.88 C-300.97 918.95 -300.97 918.95 -302 918 C-302 917.34 -302 916.68 -302 916 C-302.66 916 -303.32 916 -304 916 C-304 915.34 -304 914.68 -304 914 C-304.66 914 -305.32 914 -306 914 C-306 913.34 -306 912.68 -306 912 C-306.66 912 -307.32 912 -308 912 C-308 911.34 -308 910.68 -308 910 C-308.66 910 -309.32 910 -310 910 C-310 909.34 -310 908.68 -310 908 C-310.66 908 -311.32 908 -312 908 C-312 907.34 -312 906.68 -312 906 C-312.66 906 -313.32 906 -314 906 C-314 905.34 -314 904.68 -314 904 C-314.66 904 -315.32 904 -316 904 C-316 903.34 -316 902.68 -316 902 C-316.66 902 -317.32 902 -318 902 C-319.51 900.54 -319.51 900.54 -321.12 898.62 C-321.66 898 -322.2 897.37 -322.76 896.73 C-324 895 -324 895 -324 893 C-324.66 893 -325.32 893 -326 893 C-327.59 891.27 -327.59 891.27 -329.5 888.81 C-330.58 887.42 -330.58 887.42 -331.68 886.01 C-332.83 884.52 -332.83 884.52 -334 883 C-334.75 882.07 -335.49 881.14 -336.26 880.18 C-350.48 862.21 -363.29 842.65 -372.82 821.78 C-374.98 817.06 -377.32 812.52 -379.91 808.03 C-381.28 805.48 -382.24 802.88 -383.19 800.16 C-384.16 797.58 -385.32 795.12 -386.5 792.62 C-388.53 788.24 -390.02 783.91 -391.32 779.27 C-392.03 776.75 -392.03 776.75 -393.5 773.5 C-395.03 769.92 -396.12 766.37 -397.16 762.62 C-397.99 759.86 -397.99 759.86 -399.43 756.77 C-400.94 753.27 -401.99 749.76 -402.94 746.06 C-403.1 745.42 -403.27 744.78 -403.44 744.12 C-403.79 742.76 -404.14 741.41 -404.48 740.05 C-404.99 738.03 -405.51 736.01 -406.04 734 C-408.06 726.14 -409.82 718.27 -411.34 710.3 C-411.96 707.18 -412.68 704.09 -413.44 701 C-417.09 685.17 -419.34 669.19 -421.12 653.06 C-421.21 652.34 -421.29 651.62 -421.37 650.88 C-421.95 645.59 -422.48 640.3 -423 635 C-423.08 634.13 -423.17 633.26 -423.26 632.37 C-424.69 617.37 -425.33 602.51 -425.34 587.45 C-425.34 585.25 -425.35 583.05 -425.36 580.85 C-425.37 576.26 -425.37 571.67 -425.37 567.08 C-425.37 562.49 -425.38 557.9 -425.41 553.31 C-425.75 496.67 -422.54 438.4 -410.77 382.82 C-409.79 377.96 -408.96 373.08 -408.12 368.19 C-406.64 359.53 -405.08 350.88 -403.44 342.25 C-403.24 341.19 -403.04 340.13 -402.84 339.04 C-401.7 333.08 -400.32 327.26 -398.67 321.42 C-397.86 318.49 -397.2 315.54 -396.56 312.56 C-395.13 306.22 -393.17 300.13 -391 294 C-386.19 294 -383.82 295.7 -380 298.31 C-379.34 298.76 -378.68 299.21 -378 299.67 C-371.43 304.21 -365.7 309.43 -360 315 C-359.28 315.67 -358.57 316.33 -357.83 317.02 C-330.52 342.96 -321.37 378.02 -316 414 C-316 414.66 -316 415.32 -316 416 C-315.34 416 -314.68 416 -314 416 C-314.09 414.55 -314.09 414.55 -314.19 413.06 C-314.19 410.04 -313.67 407.71 -312.64 404.88 C-310.92 399.93 -309.72 394.92 -308.56 389.81 C-303.5 368.09 -303.5 368.09 -300.44 361.31 C-298.81 357.56 -297.82 353.81 -296.84 349.84 C-295.83 346.43 -294.42 343.27 -293 340 C-292.33 338.17 -291.66 336.34 -291.01 334.51 C-284.7 316.92 -275.43 300.32 -265.6 284.47 C-256.61 269.93 -249.34 254.56 -245 238 C-244.71 236.88 -244.41 235.77 -244.11 234.62 C-240.77 221.02 -239.59 207.63 -239.62 193.69 C-239.62 192.89 -239.62 192.1 -239.62 191.28 C-239.66 174.3 -241.43 157.76 -244 141 C-244.17 139.89 -244.33 138.78 -244.5 137.63 C-246.28 125.86 -248.7 114.45 -252.1 103.04 C-253.98 96.7 -255.79 90.34 -257.62 83.99 C-258.31 81.59 -259 79.19 -259.7 76.79 C-260.13 75.3 -260.56 73.81 -260.99 72.32 C-261.19 71.62 -261.39 70.93 -261.6 70.22 C-262.42 67.37 -263 64.98 -263 62 C-259.28 62.55 -256.91 63.47 -253.89 65.7 C-252.77 66.52 -252.77 66.52 -251.62 67.35 C-250.84 67.94 -250.05 68.52 -249.25 69.12 C-248.44 69.72 -247.63 70.31 -246.8 70.92 C-242.18 74.34 -237.6 77.79 -233.1 81.38 C-229.52 84.14 -225.8 86.71 -222.09 89.3 C-221.4 89.86 -220.71 90.42 -220 91 C-220 91.66 -220 92.32 -220 93 C-219.43 93.27 -218.86 93.54 -218.27 93.81 C-215.92 95.04 -213.88 96.43 -211.75 98 C-211.04 98.52 -210.34 99.03 -209.61 99.56 C-209.08 100.04 -208.55 100.51 -208 101 C-208 101.66 -208 102.32 -208 103 C-207.34 103 -206.68 103 -206 103 C-206 103.66 -206 104.32 -206 105 C-205.44 105.25 -204.89 105.5 -204.31 105.75 C-201.58 107.23 -199.32 108.93 -197 111 C-197 111.66 -197 112.32 -197 113 C-196.41 113.26 -195.82 113.52 -195.21 113.79 C-192.88 115.06 -191.4 116.4 -189.56 118.31 C-189.01 118.89 -188.45 119.46 -187.88 120.05 C-187.26 120.69 -186.64 121.34 -186 122 C-183.17 124.85 -180.32 127.67 -177.45 130.48 C-176.2 131.72 -174.94 132.95 -173.69 134.19 C-173.04 134.82 -172.4 135.44 -171.73 136.09 C-171.12 136.69 -170.51 137.3 -169.89 137.92 C-169.33 138.46 -168.78 139.01 -168.21 139.57 C-167 141 -167 141 -167 143 C-166.34 143 -165.68 143 -165 143 C-163.41 144.71 -161.9 146.5 -160.44 148.31 C-159.63 149.3 -158.83 150.28 -158 151.3 C-156 154 -156 154 -155 157 C-154.34 157 -153.68 157 -153 157 C-151.55 158.74 -150.19 160.54 -148.88 162.38 C-148.15 163.37 -147.43 164.37 -146.68 165.4 C-145 168 -145 168 -145 170 C-144.34 170 -143.68 170 -143 170 C-138.53 175.83 -134.73 182.21 -131.27 188.68 C-130.35 190.37 -129.36 192.03 -128.35 193.66 C-104.82 231.84 -102.71 283.86 -99.19 327.5 C-99.12 328.28 -99.06 329.06 -99 329.87 C-98.41 337.26 -97.94 344.59 -98 352 C-79.21 340.31 -66.13 326.47 -57 306 C-56.61 305.12 -56.21 304.23 -55.8 303.33 C-52.71 296.18 -50.43 289.04 -48.5 281.5 C-48.05 279.78 -48.05 279.78 -47.59 278.03 C-46.99 275.74 -46.4 273.44 -45.81 271.13 C-45.13 268.5 -44.43 265.87 -43.72 263.24 C-29.99 211.52 -21.97 157.36 -14.9 104.38 C-14.08 98.34 -13.07 92.35 -12.05 86.34 C-11.02 80.27 -10.21 74.18 -9.5 68.06 C-8.64 60.91 -7.69 53.79 -6.5 46.69 C-5 37.67 -4.01 28.61 -3.09 19.51 C-2.4 12.91 -1.45 6.48 0 0 Z " fill="#FA0301" transform="translate(425,0)"/>
<path d="M0 0 C4.55 1.95 6.26 5.18 8.69 9.31 C12.66 15.9 16.87 22.2 21.38 28.43 C23 31 23 31 23 34 C23.66 34 24.32 34 25 34 C25.62 35.16 26.24 36.31 26.88 37.5 C29.29 41.85 31.9 46.05 34.56 50.25 C40.13 59.07 45.28 68.1 50.41 77.18 C52.04 80.08 53.69 82.97 55.34 85.86 C67.19 106.68 78.17 127.82 88.41 149.47 C90.69 154.29 93.02 159.07 95.44 163.81 C97.29 167.47 98.87 171.1 100.23 174.96 C101.16 177.42 102.26 179.75 103.38 182.12 C105.86 187.5 107.8 192.99 109.74 198.58 C111.2 202.54 112.92 206.32 114.79 210.11 C116.19 213.45 117.19 216.81 118.21 220.28 C118.99 222.97 119.81 225.64 120.65 228.3 C124.24 239.87 127.51 251.46 130.33 263.24 C131.17 266.71 132.04 270.17 132.91 273.64 C134.89 281.54 136.82 289.45 138.69 297.38 C138.85 298.08 139.02 298.78 139.19 299.51 C142.19 312.25 145 325.02 147.75 337.81 C147.93 338.67 148.12 339.52 148.31 340.41 C151.07 353.24 153.59 366.1 156 379 C158.8 375.43 160.52 371.73 162.25 367.56 C164.47 362.32 166.84 357.29 169.62 352.31 C173.07 346.07 175.58 339.7 178 333 C178.77 330.91 179.55 328.82 180.34 326.73 C180.85 325.37 181.35 324.01 181.86 322.64 C183.03 319.5 184.25 316.41 185.59 313.34 C186.76 310.56 187.7 307.9 188.5 305 C189.27 302.21 190.14 299.69 191.34 297.04 C193.82 291.35 195.38 285.32 197.12 279.38 C197.92 276.69 198.72 274 199.52 271.31 C199.72 270.62 199.93 269.94 200.14 269.23 C203.31 258.56 206.65 247.94 209.97 237.31 C211.66 231.88 213.33 226.44 215 221 C216.89 221.29 216.89 221.29 219 222 C220.35 224.63 221.41 227.09 222.43 229.86 C222.73 230.66 223.04 231.47 223.36 232.3 C224.36 234.92 225.34 237.55 226.31 240.19 C226.99 241.98 227.67 243.78 228.34 245.57 C232.47 256.54 236.35 267.55 239.7 278.78 C240.52 281.51 241.41 284.17 242.44 286.82 C244.46 292.09 246.09 297.48 247.75 302.88 C248.27 304.56 248.27 304.56 248.8 306.28 C251.63 315.56 254.2 324.9 256.65 334.28 C258.05 339.6 259.57 344.82 261.35 350.02 C262.25 352.77 262.89 355.55 263.5 358.38 C264.4 362.41 265.36 366.4 266.5 370.38 C268.13 376.19 269.24 382.07 270.35 388.01 C270.69 390.87 270.69 390.87 272 392 C272.63 395.15 273.19 398.31 273.72 401.48 C274.38 405.24 275.22 408.81 276.39 412.44 C278.72 419.98 280 427.76 281.44 435.5 C281.59 436.31 281.74 437.13 281.9 437.97 C284.06 449.47 286.02 460.99 287.72 472.58 C288.51 477.95 289.41 483.25 290.56 488.56 C292.62 498.33 293.55 508.26 294.67 518.17 C294.94 520.46 295.22 522.75 295.53 525.04 C300.62 562.97 302.89 601.74 302 640 C301.98 641.09 301.96 642.18 301.94 643.31 C301.66 658.38 300.86 673.36 299.56 688.38 C299.5 689.09 299.44 689.81 299.38 690.55 C298.16 704.56 296.67 718.48 293.77 732.26 C293.01 735.95 292.34 739.66 291.69 743.38 C285.03 779.87 285.03 779.87 278.44 794.75 C277.24 797.45 276.42 799.92 275.62 802.75 C274.27 807.44 272.39 811.7 270.3 816.11 C268.97 819.07 267.85 822.07 266.75 825.12 C263.85 832.8 259.99 839.89 256.06 847.07 C255.14 848.75 254.23 850.42 253.33 852.11 C251.91 854.75 250.46 857.38 249 860 C248.48 860.94 247.96 861.88 247.43 862.84 C237.85 879.77 225.63 895.34 212.31 909.48 C210.01 911.89 210.01 911.89 208.31 914.34 C207.88 914.89 207.45 915.43 207 916 C206.34 916 205.68 916 205 916 C205 916.66 205 917.32 205 918 C204.34 918 203.68 918 203 918 C203 918.66 203 919.32 203 920 C202.34 920 201.68 920 201 920 C201 920.66 201 921.32 201 922 C199.46 923.55 199.46 923.55 197.38 925.31 C196.65 925.93 195.92 926.54 195.17 927.18 C194.46 927.78 193.74 928.38 193 929 C192.41 929.52 191.81 930.04 191.2 930.57 C187.24 934 187.24 934 185 934 C185 934.66 185 935.32 185 936 C171.37 947.92 154.95 957.56 139 966 C138.37 966.33 137.74 966.67 137.09 967.01 C128.93 971.31 120.59 975.15 112.12 978.81 C111.27 979.19 110.41 979.56 109.53 979.94 C104.48 982.1 99.45 983.87 94.16 985.34 C91.75 986.03 91.75 986.03 88.62 987.5 C84.32 989.28 80.01 990.31 75.48 991.35 C73.07 991.76 73.07 991.76 72 993 C70.33 993.04 68.67 993.04 67 993 C72.69 1006.56 78.67 1019.83 85.76 1032.73 C86.64 1034.34 87.5 1035.96 88.35 1037.59 C92.62 1045.65 97.7 1053.01 102.96 1060.45 C103.61 1061.39 104.26 1062.32 104.93 1063.28 C105.52 1064.12 106.11 1064.95 106.72 1065.81 C108 1068 108 1068 108 1071 C108.66 1071 109.32 1071 110 1071 C110.96 1072.89 111.92 1074.79 112.88 1076.69 C113.41 1077.74 113.94 1078.8 114.49 1079.89 C118.47 1088.09 120.32 1097.2 118.38 1106.31 C115.26 1114.67 111.4 1120.8 104 1126 C98.18 1127.94 93.63 1127.58 88.12 1125.06 C63.67 1111.75 49.41 1081.17 36 1058 C35.97 1059.56 35.95 1061.12 35.94 1062.69 C35.92 1063.99 35.92 1063.99 35.9 1065.32 C35.92 1067.91 35.92 1067.91 36.45 1070.05 C37.24 1074.28 37.55 1078.53 37.9 1082.82 C37.98 1083.78 38.07 1084.75 38.15 1085.74 C38.42 1088.87 38.68 1092 38.94 1095.12 C39.12 1097.29 39.3 1099.45 39.48 1101.61 C39.99 1107.74 40.5 1113.87 41 1120 C41.09 1121.12 41.09 1121.12 41.19 1122.27 C41.77 1129.39 42.3 1136.5 42.77 1143.63 C42.93 1146.01 43.1 1148.39 43.27 1150.77 C44.71 1170.57 45.21 1190.33 45.25 1210.19 C45.26 1211.3 45.26 1212.41 45.27 1213.55 C45.41 1253.38 45.41 1253.38 37 1266 C36.34 1266 35.68 1266 35 1266 C35 1266.66 35 1267.32 35 1268 C25.76 1275.43 17.2 1280.84 5.03 1280.47 C-1.08 1279.52 -5.71 1276.6 -9.78 1271.98 C-11.37 1269.73 -12.71 1267.44 -14 1265 C-14.42 1264.25 -14.83 1263.49 -15.26 1262.71 C-23.41 1246.49 -26.34 1227.49 -29.69 1209.81 C-30.25 1206.85 -30.82 1203.88 -31.4 1200.91 C-31.75 1199.1 -32.1 1197.28 -32.44 1195.46 C-33.45 1190.22 -34.77 1185.2 -36.42 1180.13 C-37 1178 -37 1178 -37 1175 C-38.32 1175 -39.64 1175 -41 1175 C-41.07 1175.62 -41.14 1176.24 -41.21 1176.89 C-42.48 1187.96 -43.82 1199 -46 1209.94 C-46.15 1210.72 -46.31 1211.51 -46.47 1212.31 C-47.44 1217.01 -48.75 1221.5 -50.32 1226.03 C-51.07 1228.21 -51.7 1230.4 -52.31 1232.62 C-55.16 1242.19 -58.9 1251.42 -64 1260 C-64.66 1260 -65.32 1260 -66 1260 C-66.1 1260.58 -66.21 1261.15 -66.31 1261.75 C-67.11 1264.36 -68.19 1265.97 -70 1268 C-70.66 1268 -71.32 1268 -72 1268 C-72.34 1268.88 -72.34 1268.88 -72.69 1269.77 C-74.36 1272.61 -76.27 1273.86 -79 1275.69 C-80.33 1276.59 -80.33 1276.59 -81.69 1277.51 C-86.85 1280.84 -91.72 1280.3 -97.75 1280.38 C-98.84 1280.41 -99.92 1280.45 -101.04 1280.49 C-110.03 1280.59 -110.03 1280.59 -113.52 1277.83 C-126.54 1262.99 -130.49 1243.91 -134 1225 C-134.22 1223.89 -134.43 1222.78 -134.65 1221.63 C-135.83 1215.15 -136.39 1208.71 -136.75 1202.13 C-136.93 1199.11 -136.93 1199.11 -137.48 1196.62 C-142.21 1172.71 -140.42 1146.61 -140.6 1122.36 C-140.64 1117.11 -140.69 1111.87 -140.74 1106.62 C-140.84 1096.42 -140.92 1086.21 -141 1076 C-142.44 1078.71 -143.87 1081.42 -145.31 1084.14 C-145.91 1085.28 -145.91 1085.28 -146.53 1086.45 C-148.27 1089.73 -150.01 1093.01 -151.74 1096.3 C-160.17 1112.28 -171.08 1128.92 -188.44 1136 C-194.88 1137.9 -200.59 1136.29 -206.38 1133.19 C-212.36 1128.2 -215.03 1123.22 -215.84 1115.49 C-216.63 1103.03 -216.2 1090.64 -212.94 1078.57 C-212.21 1075.8 -211.54 1073.04 -210.9 1070.24 C-208.86 1061.27 -206.65 1052.4 -203.88 1043.62 C-203.63 1042.86 -203.39 1042.09 -203.14 1041.3 C-201.67 1036.75 -199.9 1032.4 -198 1028 C-197.13 1025.53 -196.28 1023.05 -195.44 1020.56 C-191.51 1009.16 -186.72 998.09 -182 987 C-182.65 986.81 -183.3 986.62 -183.98 986.42 C-215.21 977.17 -244.25 961.11 -271.12 942.94 C-272.17 942.24 -272.17 942.24 -273.23 941.53 C-274.86 940.41 -276.43 939.21 -278 938 C-278 937.34 -278 936.68 -278 936 C-278.72 935.75 -279.44 935.5 -280.19 935.25 C-283.28 933.88 -285.51 932.28 -288 930 C-288 929.34 -288 928.68 -288 928 C-288.55 927.75 -289.1 927.5 -289.67 927.25 C-292.45 925.76 -294.78 923.96 -297.25 922 C-298.14 921.3 -299.03 920.6 -299.95 919.88 C-300.97 918.95 -300.97 918.95 -302 918 C-302 917.34 -302 916.68 -302 916 C-302.66 916 -303.32 916 -304 916 C-304 915.34 -304 914.68 -304 914 C-304.66 914 -305.32 914 -306 914 C-306 913.34 -306 912.68 -306 912 C-306.66 912 -307.32 912 -308 912 C-308 911.34 -308 910.68 -308 910 C-308.66 910 -309.32 910 -310 910 C-310 909.34 -310 908.68 -310 908 C-310.66 908 -311.32 908 -312 908 C-312 907.34 -312 906.68 -312 906 C-312.66 906 -313.32 906 -314 906 C-314 905.34 -314 904.68 -314 904 C-314.66 904 -315.32 904 -316 904 C-316 903.34 -316 902.68 -316 902 C-316.66 902 -317.32 902 -318 902 C-319.51 900.54 -319.51 900.54 -321.12 898.62 C-321.66 898 -322.2 897.37 -322.76 896.73 C-324 895 -324 895 -324 893 C-324.66 893 -325.32 893 -326 893 C-327.59 891.27 -327.59 891.27 -329.5 888.81 C-330.58 887.42 -330.58 887.42 -331.68 886.01 C-332.83 884.52 -332.83 884.52 -334 883 C-334.75 882.07 -335.49 881.14 -336.26 880.18 C-350.48 862.21 -363.29 842.65 -372.82 821.78 C-374.98 817.06 -377.32 812.52 -379.91 808.03 C-381.28 805.48 -382.24 802.88 -383.19 800.16 C-384.16 797.58 -385.32 795.12 -386.5 792.62 C-388.53 788.24 -390.02 783.91 -391.32 779.27 C-392.03 776.75 -392.03 776.75 -393.5 773.5 C-395.03 769.92 -396.12 766.37 -397.16 762.62 C-397.99 759.86 -397.99 759.86 -399.43 756.77 C-400.94 753.27 -401.99 749.76 -402.94 746.06 C-403.1 745.42 -403.27 744.78 -403.44 744.12 C-403.79 742.76 -404.14 741.41 -404.48 740.05 C-404.99 738.03 -405.51 736.01 -406.04 734 C-408.06 726.14 -409.82 718.27 -411.34 710.3 C-411.96 707.18 -412.68 704.09 -413.44 701 C-417.09 685.17 -419.34 669.19 -421.12 653.06 C-421.21 652.34 -421.29 651.62 -421.37 650.88 C-421.95 645.59 -422.48 640.3 -423 635 C-423.08 634.13 -423.17 633.26 -423.26 632.37 C-424.69 617.37 -425.33 602.51 -425.34 587.45 C-425.34 585.25 -425.35 583.05 -425.36 580.85 C-425.37 576.26 -425.37 571.67 -425.37 567.08 C-425.37 562.49 -425.38 557.9 -425.41 553.31 C-425.75 496.67 -422.54 438.4 -410.77 382.82 C-409.79 377.96 -408.96 373.08 -408.12 368.19 C-406.64 359.53 -405.08 350.88 -403.44 342.25 C-403.24 341.19 -403.04 340.13 -402.84 339.04 C-401.7 333.08 -400.32 327.26 -398.67 321.42 C-397.86 318.49 -397.2 315.54 -396.56 312.56 C-395.13 306.22 -393.17 300.13 -391 294 C-386.19 294 -383.82 295.7 -380 298.31 C-379.34 298.76 -378.68 299.21 -378 299.67 C-371.43 304.21 -365.7 309.43 -360 315 C-359.28 315.67 -358.57 316.33 -357.83 317.02 C-330.52 342.96 -321.37 378.02 -316 414 C-316 414.66 -316 415.32 -316 416 C-315.34 416 -314.68 416 -314 416 C-314.09 414.55 -314.09 414.55 -314.19 413.06 C-314.19 410.04 -313.67 407.71 -312.64 404.88 C-310.92 399.93 -309.72 394.92 -308.56 389.81 C-303.5 368.09 -303.5 368.09 -300.44 361.31 C-298.81 357.56 -297.82 353.81 -296.84 349.84 C-295.83 346.43 -294.42 343.27 -293 340 C-292.33 338.17 -291.66 336.34 -291.01 334.51 C-284.7 316.92 -275.43 300.32 -265.6 284.47 C-256.61 269.93 -249.34 254.56 -245 238 C-244.71 236.88 -244.41 235.77 -244.11 234.62 C-240.77 221.02 -239.59 207.63 -239.62 193.69 C-239.62 192.89 -239.62 192.1 -239.62 191.28 C-239.66 174.3 -241.43 157.76 -244 141 C-244.17 139.89 -244.33 138.78 -244.5 137.63 C-246.28 125.86 -248.7 114.45 -252.1 103.04 C-253.98 96.7 -255.79 90.34 -257.62 83.99 C-258.31 81.59 -259 79.19 -259.7 76.79 C-260.13 75.3 -260.56 73.81 -260.99 72.32 C-261.19 71.62 -261.39 70.93 -261.6 70.22 C-262.42 67.37 -263 64.98 -263 62 C-259.28 62.55 -256.91 63.47 -253.89 65.7 C-252.77 66.52 -252.77 66.52 -251.62 67.35 C-250.84 67.94 -250.05 68.52 -249.25 69.12 C-248.44 69.72 -247.63 70.31 -246.8 70.92 C-242.18 74.34 -237.6 77.79 -233.1 81.38 C-229.52 84.14 -225.8 86.71 -222.09 89.3 C-221.4 89.86 -220.71 90.42 -220 91 C-220 91.66 -220 92.32 -220 93 C-219.43 93.27 -218.86 93.54 -218.27 93.81 C-215.92 95.04 -213.88 96.43 -211.75 98 C-211.04 98.52 -210.34 99.03 -209.61 99.56 C-209.08 100.04 -208.55 100.51 -208 101 C-208 101.66 -208 102.32 -208 103 C-207.34 103 -206.68 103 -206 103 C-206 103.66 -206 104.32 -206 105 C-205.44 105.25 -204.89 105.5 -204.31 105.75 C-201.58 107.23 -199.32 108.93 -197 111 C-197 111.66 -197 112.32 -197 113 C-196.41 113.26 -195.82 113.52 -195.21 113.79 C-192.88 115.06 -191.4 116.4 -189.56 118.31 C-189.01 118.89 -188.45 119.46 -187.88 120.05 C-187.26 120.69 -186.64 121.34 -186 122 C-183.17 124.85 -180.32 127.67 -177.45 130.48 C-176.2 131.72 -174.94 132.95 -173.69 134.19 C-173.04 134.82 -172.4 135.44 -171.73 136.09 C-171.12 136.69 -170.51 137.3 -169.89 137.92 C-169.33 138.46 -168.78 139.01 -168.21 139.57 C-167 141 -167 141 -167 143 C-166.34 143 -165.68 143 -165 143 C-163.41 144.71 -161.9 146.5 -160.44 148.31 C-159.63 149.3 -158.83 150.28 -158 151.3 C-156 154 -156 154 -155 157 C-154.34 157 -153.68 157 -153 157 C-151.55 158.74 -150.19 160.54 -148.88 162.38 C-148.15 163.37 -147.43 164.37 -146.68 165.4 C-145 168 -145 168 -145 170 C-144.34 170 -143.68 170 -143 170 C-138.53 175.83 -134.73 182.21 -131.27 188.68 C-130.35 190.37 -129.36 192.03 -128.35 193.66 C-104.82 231.84 -102.71 283.86 -99.19 327.5 C-99.12 328.28 -99.06 329.06 -99 329.87 C-98.41 337.26 -97.94 344.59 -98 352 C-79.21 340.31 -66.13 326.47 -57 306 C-56.61 305.12 -56.21 304.23 -55.8 303.33 C-52.71 296.18 -50.43 289.04 -48.5 281.5 C-48.05 279.78 -48.05 279.78 -47.59 278.03 C-46.99 275.74 -46.4 273.44 -45.81 271.13 C-45.13 268.5 -44.43 265.87 -43.72 263.24 C-29.99 211.52 -21.97 157.36 -14.9 104.38 C-14.08 98.34 -13.07 92.35 -12.05 86.34 C-11.02 80.27 -10.21 74.18 -9.5 68.06 C-8.64 60.91 -7.69 53.79 -6.5 46.69 C-5 37.67 -4.01 28.61 -3.09 19.51 C-2.4 12.91 -1.45 6.48 0 0 Z M14 61 C12.09 71.96 10.39 82.94 8.77 93.94 C8.67 94.61 8.57 95.28 8.46 95.98 C8.05 98.79 7.64 101.6 7.22 104.42 C1.67 142.07 -4.25 179.58 -11.56 216.94 C-11.79 218.09 -12.01 219.25 -12.25 220.44 C-14.74 233.12 -17.34 245.77 -20.13 258.39 C-20.37 259.46 -20.6 260.54 -20.85 261.65 C-30.1 303.04 -44.12 342.91 -81.32 367 C-92.81 374.16 -104.52 378.49 -118 380 C-119.52 378.48 -119.22 377.05 -119.34 374.93 C-119.39 374.06 -119.44 373.18 -119.49 372.28 C-119.57 370.85 -119.57 370.85 -119.65 369.38 C-119.77 367.32 -119.88 365.27 -120 363.22 C-120.06 362.13 -120.12 361.05 -120.19 359.93 C-123.6 272.04 -123.6 272.04 -156 192 C-157.13 190.17 -158.25 188.33 -159.38 186.5 C-163.13 180.6 -167.5 175.34 -172 170 C-174.29 167.17 -176.58 164.34 -178.86 161.51 C-181.12 158.86 -183.53 156.45 -186 154 C-187.7 152.15 -189.38 150.3 -191.06 148.44 C-196.84 142.08 -202.89 136.03 -209 130 C-210.34 128.65 -210.34 128.65 -211.71 127.27 C-215.27 123.41 -215.27 123.41 -220 122 C-220.33 121.01 -220.66 120.02 -221 119 C-221.66 119 -222.32 119 -223 119 C-223 118.34 -223 117.68 -223 117 C-223.99 117.33 -224.98 117.66 -226 118 C-225.84 118.88 -225.84 118.88 -225.68 119.77 C-217.97 163.06 -213.18 207.22 -226 250 C-226.21 250.72 -226.43 251.44 -226.65 252.18 C-231.82 269.04 -240.22 284.31 -249.39 299.28 C-283.07 354.7 -296.33 422.13 -309.17 485 C-310.72 492.54 -312.44 500.05 -314.12 507.56 C-317.21 521.35 -320.18 535.15 -323 549 C-323.33 549 -323.66 549 -324 549 C-324.46 544.59 -324.91 540.18 -325.37 535.76 C-325.54 534.08 -325.71 532.39 -325.89 530.71 C-327.11 518.91 -328.28 507.12 -329.43 495.32 C-333.8 405.46 -333.8 405.46 -376 330 C-376.66 330 -377.32 330 -378 330 C-384.26 354.35 -388.95 378.99 -392.29 403.91 C-392.78 407.52 -393.33 411.12 -393.93 414.72 C-396.96 433.23 -399.05 451.8 -400.77 470.47 C-400.99 472.92 -401.23 475.37 -401.47 477.81 C-406.54 531.05 -406.79 586.82 -401 640 C-400.89 641.09 -400.78 642.19 -400.66 643.31 C-399.97 649.91 -399.03 656.45 -398 663 C-397.81 664.28 -397.61 665.57 -397.41 666.89 C-392.91 696.59 -386.73 725.41 -377.44 754 C-377.04 755.23 -377.04 755.23 -376.63 756.49 C-365.21 791.38 -349.91 824.64 -328.19 854.37 C-327.09 855.87 -326.01 857.39 -324.94 858.91 C-319.99 865.85 -314.84 872.78 -309 879 C-308.34 879 -307.68 879 -307 879 C-306.77 879.56 -306.55 880.11 -306.31 880.69 C-304.63 883.66 -302.45 885.61 -300 888 C-298.95 889.25 -297.91 890.5 -296.88 891.75 C-293.24 895.95 -289.12 899.31 -284.78 902.76 C-282.16 904.87 -279.67 907.06 -277.19 909.31 C-274.78 911.49 -272.42 913.49 -269.69 915.25 C-267 917 -267 917 -265.26 918.82 C-262.48 921.5 -259.41 923.58 -256.19 925.69 C-255.53 926.12 -254.87 926.56 -254.19 927 C-247.83 931.17 -241.34 935.12 -234.77 938.96 C-233.15 939.91 -231.56 940.89 -229.96 941.88 C-191.01 965.42 -144.61 976.7 -100 983 C-99.35 983.09 -98.7 983.19 -98.03 983.29 C-84.06 985.27 -70.15 985.32 -56.06 985.25 C-54.88 985.25 -53.7 985.24 -52.49 985.24 C-35.57 985.18 -18.82 984.93 -2 983 C-0.6 982.85 0.8 982.71 2.2 982.56 C50.38 977.47 100.46 965.28 141.5 938.56 C144.16 936.83 146.81 935.11 149.54 933.49 C158.76 927.95 166.84 920.97 175 914 C175.66 913.44 176.32 912.87 177 912.29 C188.64 902.25 199.7 891.26 209 879 C209.72 878.07 210.44 877.15 211.18 876.19 C220.69 863.79 228.89 851.01 235.94 837.07 C236.93 835.13 237.96 833.2 238.99 831.28 C282.15 749.75 284.26 646.48 251 403 C250.71 401.71 250.71 401.71 250.41 400.39 C242.73 366.41 233.69 332.52 222.75 299.44 C222.39 298.35 222.03 297.26 221.66 296.14 C220.39 291.22 220.39 291.22 217 288 C216.7 288.94 216.4 289.88 216.09 290.84 C206.75 319.89 195.9 347.68 182.41 375.1 C180.61 378.8 178.86 382.52 177.11 386.24 C172.05 397 166.64 407.54 161 418 C160.49 418.96 159.97 419.92 159.44 420.9 C157.82 423.92 156.19 426.93 154.56 429.94 C154.05 430.88 153.55 431.82 153.02 432.79 C152.54 433.67 152.06 434.56 151.57 435.46 C151.14 436.24 150.72 437.02 150.28 437.83 C148.98 440.03 147.66 442.05 146 444 C145.34 444 144.68 444 144 444 C143.96 443.37 143.92 442.74 143.87 442.1 C143.26 434.17 141.89 426.48 140.38 418.69 C139.82 415.81 139.27 412.94 138.72 410.07 C138.58 409.32 138.44 408.58 138.29 407.81 C137.3 402.62 136.35 397.42 135.43 392.21 C131.23 368.52 126.2 345.05 120.92 321.57 C119.64 315.89 118.39 310.2 117.16 304.51 C110.39 273.27 102.89 241.72 91 212 C90.4 210.46 90.4 210.46 89.79 208.9 C80 183.83 69.16 158.96 56.26 135.33 C54.34 131.78 52.5 128.2 50.65 124.63 C42.2 108.31 33.63 92.04 24.04 76.36 C21.38 71.99 18.85 67.55 16.31 63.1 C15.88 62.41 15.45 61.71 15 61 C14.67 61 14.34 61 14 61 Z " fill="#000000" transform="translate(425,0)"/>
<path d="M0 0 C4.62 3.78 8.77 7.69 12.62 12.25 C13.13 12.85 13.64 13.45 14.16 14.07 C36.84 41.24 55.38 72.52 64 107 C64.35 108.4 64.35 108.4 64.71 109.82 C76.93 160.25 77.86 214.59 79.27 266.28 C79.29 267.01 79.31 267.74 79.33 268.5 C79.43 271.9 79.51 275.31 79.57 278.72 C79.6 279.89 79.63 281.06 79.66 282.27 C79.67 283.29 79.69 284.3 79.71 285.35 C80 288.03 80.63 289.7 82 292 C93.27 285.02 104.37 277.92 115 270 C115.54 269.6 116.08 269.2 116.63 268.79 C132.57 256.91 147.52 243.65 161.47 229.49 C163.8 227.14 166.2 224.93 168.71 222.79 C173.05 219.02 177.09 215.01 181.11 210.91 C182.62 209.39 184.13 207.87 185.64 206.35 C187.99 203.97 190.34 201.6 192.69 199.22 C194.97 196.9 197.26 194.6 199.55 192.29 C200.61 191.21 200.61 191.21 201.68 190.12 C202.34 189.46 202.99 188.8 203.67 188.12 C204.24 187.54 204.81 186.96 205.4 186.36 C207 185 207 185 210 184 C212.5 187.75 212.93 191.33 213.63 195.69 C213.78 196.59 213.93 197.5 214.08 198.43 C214.59 201.47 215.08 204.52 215.56 207.56 C215.73 208.62 215.9 209.68 216.08 210.77 C220.79 239.95 224.74 269.22 228.54 298.53 C228.95 301.59 229.36 304.66 229.78 307.72 C235.33 348.03 235.04 389.65 230 430 C229.74 432.34 229.48 434.67 229.23 437.01 C225.43 470.2 219.76 503.46 212.19 536 C211.91 537.18 211.91 537.18 211.63 538.38 C209.45 547.71 206.96 556.88 204 566 C184.73 562.6 166.3 535.68 155.37 520.34 C143.14 502.79 135.04 483.03 128.64 462.7 C128.34 461.75 128.04 460.8 127.74 459.82 C124.57 449.74 121.62 439.61 118.75 429.44 C118.48 428.47 118.2 427.51 117.92 426.52 C112.06 405.76 106.89 384.84 101.92 363.85 C101.29 361.23 100.66 358.61 100 356 C99 356.13 98.01 356.27 96.98 356.4 C85.67 357.86 74.4 358.65 63 359 C61.9 359.04 61.9 359.04 60.78 359.07 C15.82 360.29 -17.51 349.52 -54.22 324.4 C-54.87 323.96 -55.52 323.51 -56.19 323.06 C-59.49 320.79 -62.74 318.47 -65.93 316.06 C-66.56 315.58 -67.2 315.11 -67.85 314.63 C-69.04 313.74 -70.22 312.83 -71.39 311.91 C-73.97 309.99 -75.48 308.98 -78.74 309.08 C-82.1 310.45 -83.9 312.96 -86.06 315.75 C-87.03 316.94 -87.99 318.13 -88.96 319.31 C-89.71 320.23 -89.71 320.23 -90.47 321.16 C-92.94 324.12 -95.56 326.94 -98.19 329.75 C-101.61 333.41 -104.97 337.09 -108.25 340.88 C-111.27 344.3 -114.47 347.27 -117.96 350.2 C-120.14 352.12 -122.12 354.16 -124.12 356.25 C-128.5 360.7 -133.27 364.5 -138.22 368.28 C-140.97 370.39 -143.65 372.44 -146 375 C-150.21 373.62 -154.35 372.12 -158.5 370.56 C-181.78 362.24 -206.03 361.25 -229 371 C-237.46 375.01 -244.38 379.38 -251 386 C-251.86 385.7 -252.72 385.41 -253.6 385.1 C-256.83 384.05 -260.06 383.17 -263.35 382.34 C-264.53 382.04 -265.71 381.74 -266.93 381.43 C-269.4 380.81 -271.87 380.19 -274.34 379.57 C-275.52 379.27 -276.7 378.97 -277.91 378.66 C-278.99 378.39 -280.06 378.12 -281.16 377.84 C-283.68 377.09 -285.79 376.42 -288 375 C-288.93 372.21 -289.13 370.53 -289.13 367.65 C-289.13 366.78 -289.13 365.91 -289.13 365.01 C-289.12 364.07 -289.12 363.13 -289.11 362.16 C-289.11 361.18 -289.11 360.2 -289.1 359.19 C-289.04 348.93 -288.67 338.69 -288.19 328.44 C-288.14 327.49 -288.1 326.54 -288.05 325.56 C-284.86 258.13 -266.3 200.46 -233.53 142 C-226.1 128.73 -219.66 115.2 -214.19 101 C-213.8 100.01 -213.41 99.02 -213 98 C-212.72 97.23 -212.44 96.45 -212.15 95.65 C-211 94 -211 94 -208.43 93.4 C-207.63 93.27 -206.83 93.13 -206 93 C-205.77 93.73 -205.54 94.45 -205.3 95.2 C-199.07 114.69 -191.32 132.8 -182 151 C-181.49 152 -180.99 153 -180.46 154.03 C-174.41 165.95 -167.97 177.6 -161 189 C-160.2 190.3 -160.2 190.3 -159.39 191.63 C-149.95 207.05 -140.06 222.16 -129.92 237.12 C-128.69 238.97 -127.49 240.83 -126.32 242.71 C-125.81 243.52 -125.31 244.33 -124.79 245.16 C-124.36 245.86 -123.94 246.56 -123.5 247.28 C-121.59 249.46 -119.73 250.11 -117 251 C-110.37 243.07 -104.47 234.69 -98.56 226.22 C-97.07 224.09 -95.56 221.98 -94.05 219.86 C-70.69 187.11 -48.56 153.59 -35.2 115.41 C-34.14 112.41 -33.07 109.42 -31.98 106.43 C-25.4 88.25 -19.79 69.86 -14.56 51.25 C-14.27 50.21 -13.98 49.17 -13.67 48.11 C-10.25 35.91 -7.12 23.73 -4.71 11.3 C-4.53 10.4 -4.34 9.5 -4.16 8.57 C-3.93 7.39 -3.93 7.39 -3.7 6.18 C-2.89 3.66 -1.68 2.02 0 0 Z " fill="#FC3C05" transform="translate(450,198)"/>
<path d="M0 0 C17.2 4.88 34.74 8.32 52.31 11.56 C53.35 11.75 53.35 11.75 54.4 11.95 C104.19 21.04 158.33 16.19 207.52 6.05 C218.9 3.79 218.9 3.79 223.31 5.56 C224.63 7.5 225.39 9.43 226.2 11.62 C227.54 15.16 229.16 18.52 230.81 21.91 C231.46 23.25 232.1 24.59 232.75 25.93 C233.25 26.95 233.25 26.95 233.75 27.99 C234.75 30.06 235.74 32.12 236.74 34.19 C241.61 44.29 246.78 53.91 252.96 63.28 C254.31 65.56 254.31 65.56 254.31 67.56 C254.97 67.56 255.63 67.56 256.31 67.56 C261.41 74.35 265.37 82.06 269.31 89.56 C269.72 90.32 270.12 91.08 270.54 91.86 C274.74 99.91 275.82 108.53 273.19 117.31 C268.86 124.81 268.86 124.81 265.31 127.56 C259 128.93 255.28 126.86 249.9 123.56 C243.54 118.66 238.62 112.68 233.88 106.25 C233.06 105.18 233.06 105.18 232.24 104.08 C228.31 98.82 228.31 98.82 228.31 96.56 C227.65 96.56 226.99 96.56 226.31 96.56 C224.69 94.37 224.69 94.37 222.88 91.44 C222.28 90.49 221.68 89.53 221.07 88.55 C219.94 86.64 218.87 84.68 217.88 82.69 C215.98 78.9 213.81 75.32 211.62 71.69 C206.76 63.5 202.44 55.14 198.31 46.56 C197.62 45.13 197.62 45.13 196.91 43.67 C195.4 40.53 193.88 37.39 192.38 34.25 C191.89 33.24 191.4 32.23 190.9 31.19 C190.23 29.77 190.23 29.77 189.54 28.32 C189.13 27.48 188.73 26.63 188.31 25.76 C187.31 23.56 187.31 23.56 186.31 20.56 C186.11 27.91 186.8 35.03 187.64 42.33 C187.89 44.51 188.14 46.7 188.38 48.88 C188.74 52.03 189.09 55.18 189.45 58.33 C192.42 84.75 195.14 111.18 197.25 137.69 C197.35 138.94 197.45 140.19 197.56 141.48 C199.53 166.02 200.48 190.44 200.44 215.07 C200.44 218.85 200.44 222.63 200.45 226.42 C200.45 228.87 200.45 231.32 200.45 233.77 C200.45 234.88 200.45 235.98 200.45 237.13 C200.37 264.24 200.37 264.24 193.98 271.04 C187.4 276.68 179.49 282.67 170.35 282.05 C164.89 280.74 160.9 277.75 157.62 273.23 C146.52 252.97 143.52 227.07 139.19 204.69 C136.54 189.67 136.54 189.67 129.31 176.56 C126.48 175.15 124.46 175.32 121.31 175.56 C117.02 177.16 117.02 177.16 114.31 180.56 C114.01 183.48 113.75 186.39 113.5 189.31 C110.9 217.08 106.17 248.31 88.31 270.56 C87.86 271.17 87.4 271.77 86.94 272.4 C83.19 277.26 78.46 281.45 72.31 282.56 C67.06 283.17 61.78 283.73 56.89 281.42 C40.79 268.59 38.1 239.38 35.75 220.41 C34.91 212.99 34.24 205.56 33.62 198.12 C33.56 197.4 33.5 196.67 33.44 195.93 C31.52 172.62 31.14 149.26 31.18 125.88 C31.19 121.97 31.18 118.06 31.18 114.15 C31.17 102.14 31.3 90.19 32.1 78.21 C32.28 75.08 32.35 72.01 32.31 68.89 C32.24 62.03 32.81 55.21 33.31 48.38 C33.41 47.03 33.51 45.68 33.6 44.33 C33.84 41.08 34.07 37.82 34.31 34.56 C33.65 34.56 32.99 34.56 32.31 34.56 C32.06 35.81 31.81 37.06 31.56 38.34 C30.27 44.1 28.38 49.58 26.38 55.12 C25.98 56.21 25.59 57.29 25.19 58.41 C20.88 70.09 15.77 81.37 10.31 92.56 C9.95 93.31 9.58 94.06 9.21 94.84 C1.64 110.2 -8.84 127.35 -23.69 136.56 C-28.18 138.06 -32.03 138.34 -36.38 136.31 C-37.14 135.74 -37.9 135.16 -38.69 134.56 C-39.41 134.03 -40.13 133.49 -40.88 132.94 C-47.41 124.37 -44.92 110.94 -43.62 101 C-39.23 70.72 -28.06 40.84 -16.62 12.56 C-16.34 11.86 -16.06 11.15 -15.77 10.43 C-14.97 8.45 -14.16 6.47 -13.34 4.5 C-12.64 2.81 -12.64 2.81 -11.93 1.09 C-9.2 -4.46 -4.84 -1.44 0 0 Z " fill="#FA0301" transform="translate(260.6875,990.4375)"/>
<path d="M0 0 C5.12 2.3 7.11 10.9 9.07 15.93 C21.51 49.25 28.63 83.61 32.07 118.93 C32.17 119.85 32.27 120.78 32.37 121.73 C33.44 133.31 33.32 144.94 33.32 156.55 C33.33 157.7 33.33 158.85 33.33 160.04 C33.28 240.74 33.28 240.74 13.42 261.68 C4.6 269.72 -5.84 272.48 -17.61 272.24 C-28.39 271.23 -38.19 268.41 -45.55 260.09 C-47.09 258.1 -48.52 256.07 -49.93 253.99 C-50.43 253.25 -50.94 252.51 -51.47 251.75 C-64.45 232.56 -69.88 216.88 -65.48 193.74 C-65.2 192.35 -65.2 192.35 -64.93 190.93 C-64.74 189.96 -64.55 188.99 -64.35 187.99 C-53.13 131.98 -32.97 77.4 -13.11 23.99 C-12.76 23.05 -12.42 22.11 -12.06 21.15 C-11.07 18.5 -10.08 15.86 -9.09 13.21 C-8.8 12.43 -8.51 11.65 -8.21 10.84 C-4.07 -0.15 -4.07 -0.15 0 0 Z " fill="#FC5006" transform="translate(474.92578125,249.0703125)"/>
<path d="M0 0 C0.83 0.41 1.67 0.81 2.52 1.23 C19.45 10.33 29.54 27.06 35 45 C38.42 59.66 37.7 74.18 29.77 87.35 C16.67 106.94 -2.47 115.21 -25 120 C-46.56 123.65 -70.24 122.91 -89 111 C-89.88 110.46 -90.75 109.93 -91.65 109.38 C-104.71 100.89 -110.07 88.34 -113.38 73.56 C-114.95 65.4 -113.87 57.89 -111.56 50 C-111.16 48.63 -111.16 48.63 -110.76 47.24 C-104.87 28.11 -93.65 9.61 -76.09 -0.71 C-52.89 -12.98 -23.23 -11.9 0 0 Z " fill="#FBDE0A" transform="translate(296,581)"/>
<path d="M0 0 C0.66 0 1.32 0 2 0 C3.69 3.08 5.38 6.17 7.06 9.25 C7.59 10.22 8.13 11.2 8.68 12.2 C11.74 17.82 14.78 23.45 17.79 29.1 C27.98 48.28 27.98 48.28 39 67 C39.66 68.07 40.32 69.13 41 70.23 C48.18 81.41 57.09 91.15 66.1 100.86 C69 104.13 69.24 106.24 69.18 110.59 C68.83 115.25 67.72 119.76 66.69 124.31 C64.41 134.83 62.48 145.34 61 156 C60.9 156.74 60.79 157.49 60.68 158.25 C57.47 181.62 60.61 203.34 65.37 226.31 C66.46 231.65 67.29 236.55 67 242 C60.87 238.22 56.82 233.39 52.4 227.77 C51.47 226.59 50.53 225.42 49.58 224.25 C36.1 207.53 26.62 188.47 17 169.38 C16.64 168.66 16.27 167.94 15.9 167.2 C14.84 165.1 13.79 163 12.75 160.9 C12.29 159.99 12.29 159.99 11.83 159.07 C11.2 157.8 10.6 156.51 10.01 155.22 C9.29 153.65 8.52 152.1 7.71 150.58 C2.12 138.7 2.84 125.48 2.42 112.61 C2.31 109.93 2.21 107.25 2.1 104.57 C1.88 98.97 1.68 93.37 1.49 87.77 C1.22 79.93 0.92 72.09 0.61 64.24 C-1.73 3.47 -1.73 3.47 0 0 Z " fill="#FC3C05" transform="translate(36,470)"/>
<path d="M0 0 C4.19 2.2 5.65 6.99 7.05 11.37 C7.62 13.53 8.11 15.69 8.56 17.88 C8.73 18.66 8.9 19.45 9.07 20.26 C10.49 27.24 11.18 34.12 11.38 41.25 C11.43 42.43 11.48 43.62 11.53 44.84 C12.35 79 7.4 123.76 -15.79 151.06 C-18.58 152.87 -20.36 152.72 -23.62 152.25 C-25.9 150.89 -27.74 149.61 -29.75 147.94 C-30.31 147.49 -30.87 147.04 -31.45 146.57 C-37.42 141.73 -43.08 136.57 -48.62 131.25 C-49.14 130.76 -49.65 130.27 -50.19 129.77 C-62 118.54 -75.34 104.43 -76 87.25 C-75.7 62.46 -48.15 40.3 -32.02 24.53 C-28.65 21.32 -25.17 18.26 -21.62 15.25 C-21.05 14.75 -20.47 14.26 -19.88 13.74 C-18.26 12.34 -16.63 10.95 -15 9.56 C-14.47 9.1 -13.93 8.64 -13.38 8.17 C-4.26 0.41 -4.26 0.41 0 0 Z " fill="#FC5006" transform="translate(665.625,478.75)"/>
<path d="M0 0 C13.01 10.94 24.34 27.34 25.99 44.84 C26.39 60.46 20.61 74.9 9.97 86.3 C0.23 95.13 -9.26 95.99 -21.86 95.48 C-39.83 94.2 -56.21 85.43 -68.25 72.31 C-75.19 64.22 -79.91 52.54 -80.51 41.86 C-79.22 29.07 -70.81 15.46 -61.12 7.35 C-52.67 1.35 -43.37 -2.55 -33.25 -4.69 C-32.26 -4.91 -31.27 -5.14 -30.25 -5.38 C-19.32 -6.51 -9.87 -5.12 0 0 Z " fill="#FBDE0A" transform="translate(513.25,600.6875)"/>
<path d="M0 0 C3.99 4.03 5.54 8.47 7.25 13.75 C7.69 15.12 7.69 15.12 8.15 16.52 C15.14 38.74 19.66 61.58 24 84.44 C24.3 86.01 24.3 86.01 24.61 87.62 C25.19 90.64 25.75 93.66 26.31 96.68 C26.48 97.58 26.66 98.47 26.83 99.39 C27.88 105.18 28.74 111.12 28 117 C24.77 120.88 20.4 122.21 15.69 123.69 C15.02 123.9 14.35 124.12 13.66 124.34 C9.02 125.78 4.84 126.75 0 127 C-0.75 127.04 -1.5 127.08 -2.28 127.12 C-19.33 127.6 -38.35 122.38 -50.94 110.5 C-56 105.01 -57.42 100.57 -57.33 93.18 C-56.71 87.21 -54.42 81.85 -52.19 76.31 C-51.69 75.04 -51.19 73.76 -50.69 72.48 C-45.93 60.44 -40.68 48.63 -35 37 C-34.57 36.12 -34.14 35.23 -33.69 34.32 C-27.37 21.52 -20.73 8.68 -9 0 C-5.39 -1.2 -3.64 -1.04 0 0 Z " fill="#FC5006" transform="translate(258,408)"/>
<path d="M0 0 C22.83 -0.74 43.63 5.57 62.51 18.16 C62.51 18.82 62.51 19.48 62.51 20.16 C63.08 20.39 63.64 20.63 64.22 20.87 C78.51 28.91 86.81 49.85 91.25 64.62 C95.22 80.95 92.32 98.24 84.54 112.9 C81.42 117.92 77.67 122 73.51 126.16 C72.97 126.78 72.43 127.41 71.88 128.05 C58.09 143.49 32.43 149.87 12.64 151.91 C10.6 152.02 8.55 152.1 6.51 152.16 C5.42 152.2 5.42 152.2 4.3 152.24 C-20.9 153.04 -43.12 147.01 -62.1 129.69 C-73.03 118.17 -79 100.53 -79.71 84.98 C-78.5 64.25 -67.64 41.82 -54.49 26.16 C-53.88 25.4 -53.28 24.63 -52.65 23.85 C-41.7 10.62 -23.91 2.71 -7.05 0.47 C-4.7 0.28 -2.35 0.15 0 0 Z M-45.49 31.16 C-55.42 43.23 -62.18 56.66 -66.49 71.66 C-66.7 72.38 -66.9 73.09 -67.12 73.83 C-69.22 81.79 -68.91 89.12 -66.8 97.04 C-66.62 97.72 -66.44 98.41 -66.26 99.12 C-62.32 113.56 -55.6 124.52 -42.49 132.16 C-29.46 139.12 -17.52 141.7 -2.8 141.54 C-2.14 141.53 -1.48 141.53 -0.81 141.52 C23.41 141.34 49.75 136.02 67.51 118.16 C76.94 106.42 83.28 93.88 82.76 78.41 C81.67 68.62 79.08 59.85 74.51 51.16 C73.68 49.49 73.68 49.49 72.83 47.79 C65.04 32.71 53.35 21.76 37.1 16.36 C8.78 7.81 -23.8 7.91 -45.49 31.16 Z " fill="#000000" transform="translate(250.48828125,560.83984375)"/>
<path d="M0 0 C7.45 2.88 9.93 10.83 13 17.75 C21.14 36.77 29.01 56.76 30.88 77.49 C31.29 81.78 32.11 85.56 33.5 89.62 C35.36 95.19 36.37 100.64 37.19 106.44 C37.3 107.22 37.41 108 37.52 108.81 C37.9 111.66 38.23 114.52 38.56 117.38 C38.65 118.01 38.73 118.64 38.81 119.3 C40.78 134.51 40.87 149.71 40.82 165.02 C40.81 168.54 40.82 172.05 40.83 175.57 C40.99 231.76 40.99 231.76 32.46 250.19 C31.47 252.6 31.08 254.81 30.69 257.38 C28.91 267.39 21.85 276.13 13.81 282 C6.76 286.73 0.18 290 -8.44 290.38 C-9.65 290.45 -9.65 290.45 -10.89 290.53 C-23.92 290.99 -37.57 288.05 -47.38 279.06 C-62.07 263.27 -72.88 244.16 -72.88 222.5 C-72.88 221.79 -72.88 221.08 -72.88 220.34 C-72.85 206.85 -70.9 194.42 -67.44 181.38 C-66.93 179.33 -66.42 177.29 -65.91 175.25 C-65.4 173.27 -64.89 171.29 -64.38 169.31 C-64.14 168.41 -63.91 167.52 -63.67 166.59 C-62.59 162.65 -61.47 159.19 -59.32 155.7 C-57.25 152.04 -56.79 149.47 -56.31 145.31 C-55.04 136.43 -52.27 128.04 -49.44 119.56 C-49.22 118.89 -48.99 118.22 -48.77 117.53 C-48.12 115.59 -47.47 113.66 -46.81 111.73 C-46.43 110.6 -46.04 109.48 -45.65 108.31 C-44.44 105.38 -44.44 105.38 -42.84 103.31 C-41.07 100.87 -40.91 99.08 -40.58 96.1 C-39.43 88.32 -36.81 81.16 -34.12 73.81 C-33.59 72.33 -33.06 70.86 -32.53 69.38 C-30.85 64.7 -29.15 60.04 -27.44 55.38 C-27.15 54.59 -26.86 53.81 -26.57 53 C-24.58 47.56 -22.57 42.12 -20.56 36.69 C-20.3 35.97 -20.03 35.26 -19.76 34.52 C-18.26 30.46 -16.73 26.41 -15.19 22.36 C-14.41 20.31 -13.66 18.26 -12.9 16.2 C-12.39 14.86 -11.88 13.51 -11.37 12.17 C-10.92 10.98 -10.48 9.79 -10.02 8.57 C-7.66 3.81 -5.44 0.59 0 0 Z M-2.92 12.52 C-4.85 14.88 -5.72 17.17 -6.79 20.03 C-7.22 21.18 -7.65 22.33 -8.1 23.52 C-8.57 24.79 -9.03 26.05 -9.5 27.31 C-9.99 28.63 -10.48 29.95 -10.98 31.26 C-15.47 43.31 -19.81 55.41 -24.08 67.54 C-25.27 70.9 -26.47 74.25 -27.68 77.61 C-62.72 160.52 -62.72 160.52 -61.88 244.81 C-58.13 252.59 -53.63 259.49 -48.44 266.38 C-47.76 267.33 -47.07 268.28 -46.37 269.26 C-39.43 278.58 -31.77 281.43 -20.44 283.38 C-8.83 284.49 1.95 282.56 11.31 275.38 C31.5 257.37 31.8 224.83 33.37 199.81 C33.85 190.03 33.81 180.23 33.81 170.44 C33.81 169.29 33.81 168.14 33.82 166.95 C33.8 148.25 33.11 129.92 30.56 111.38 C30.42 110.31 30.27 109.25 30.12 108.15 C25.69 76.69 17.82 45.31 4.56 16.38 C4.02 15.16 4.02 15.16 3.46 13.93 C2.65 12.19 2.65 12.19 0.62 11.44 C-1.48 11.16 -1.48 11.16 -2.92 12.52 Z " fill="#FB4100" transform="translate(474.4375,237.625)"/>
<path d="M0 0 C2.86 1.4 5.65 2.9 8.43 4.47 C20.47 11.19 32.65 17.24 45.27 22.78 C48.3 24.13 51.29 25.55 54.29 26.97 C61.02 30.08 67.88 32.67 74.88 35.12 C76.73 35.78 76.73 35.78 78.63 36.44 C82.08 37.65 85.54 38.83 89 40 C89.76 40.26 90.51 40.51 91.29 40.78 C125.91 52.14 166.85 51.31 203 52 C203 56 203 56 201.38 57.68 C183.05 70.3 163.48 74.18 141.44 74.19 C140.16 74.2 138.87 74.21 137.55 74.22 C124.26 74.24 111.91 72.3 99.12 68.75 C97.43 68.28 97.43 68.28 95.7 67.81 C68.79 60.25 46.42 46.91 25 29 C23.93 28.13 23.93 28.13 22.84 27.25 C21.19 25.88 19.59 24.45 18 23 C18 22.34 18 21.68 18 21 C17.43 20.75 16.86 20.51 16.27 20.25 C8.71 16.08 3.37 8.25 -1 1 C-0.67 0.67 -0.34 0.34 0 0 Z " fill="#000000" transform="translate(244,820)"/>
<path d="M0 0 C3.96 1.32 4.4 2.87 6.5 6.44 C6.84 7.01 7.18 7.58 7.54 8.16 C9.13 10.82 10.7 13.49 12.27 16.15 C18.53 26.74 25.19 36.5 33 46 C34.38 47.72 35.76 49.45 37.12 51.19 C37.66 51.86 38.2 52.54 38.76 53.23 C41.6 57.28 41.41 62 41.75 66.76 C41.85 68.06 41.85 68.06 41.95 69.38 C42.09 71.21 42.22 73.04 42.36 74.88 C42.56 77.66 42.77 80.44 42.98 83.22 C43.12 85.01 43.25 86.79 43.38 88.57 C43.44 89.4 43.5 90.22 43.57 91.07 C44.5 104.03 43.51 116.45 35 127 C32.5 129.56 32.5 129.56 30 131 C21.47 130.2 15.98 122.07 10.86 115.92 C6.26 108.69 4.28 100.87 2.88 92.5 C2.72 91.65 2.56 90.79 2.4 89.91 C-0.51 73.29 -1.37 56.82 -1.63 39.97 C-1.69 36.48 -1.76 32.98 -1.83 29.48 C-1.87 27.23 -1.91 24.97 -1.95 22.72 C-1.97 21.69 -1.99 20.66 -2.01 19.6 C-2.1 13.38 -2.05 7.15 -1 1 C-0.67 0.67 -0.34 0.34 0 0 Z " fill="#FC5006" transform="translate(50,517)"/>
<path d="M0 0 C13.31 12.94 24.37 33.3 25.48 52.16 C25.36 56.43 24.53 60.44 23.5 64.56 C23.32 65.31 23.13 66.05 22.95 66.82 C20.38 76.96 16.68 84.87 10.25 93.19 C9.72 93.9 9.18 94.61 8.63 95.35 C1.7 103.97 -7.78 109.65 -18.75 111.19 C-43.06 113.15 -64.33 104.79 -82.94 89.38 C-93.85 79.25 -101.03 63.04 -102.75 48.36 C-102.75 33.98 -93.19 17.55 -83.3 7.52 C-59.82 -13.88 -26.26 -17.31 0 0 Z M-78.94 18.19 C-84.83 25.59 -92.62 39.06 -91.69 48.69 C-89.81 62.99 -82.87 75.98 -71.75 85.19 C-58.25 95.09 -43.16 100.36 -26.44 100.56 C-25.7 100.58 -24.96 100.59 -24.19 100.6 C-14.6 100.52 -7.7 96.62 -0.75 90.19 C9.14 79.68 15.09 64.9 14.66 50.42 C12.66 34.7 4.39 20.16 -6.75 9.19 C-7.26 8.66 -7.78 8.14 -8.3 7.6 C-15.62 0.79 -25.95 -1.14 -35.59 -1.03 C-51.89 0.08 -67.47 6.38 -78.94 18.19 Z " fill="#000000" transform="translate(524.75,595.8125)"/>
<path d="M0 0 C15.97 19.73 11.61 58.05 11.05 81.83 C11 83.83 10.97 85.82 10.94 87.81 C10.55 105.39 6.41 120.67 0 137 C-0.42 138.07 -0.83 139.13 -1.26 140.23 C-3.46 145.67 -5.7 150.62 -9.06 155.44 C-9.71 156.38 -10.36 157.33 -11.04 158.31 C-17.36 166.97 -17.36 166.97 -23 169 C-28.24 168.71 -31.02 166.86 -35.06 163.62 C-35.62 163.18 -36.18 162.73 -36.76 162.27 C-38.52 160.86 -40.26 159.43 -42 158 C-42.54 157.56 -43.08 157.13 -43.64 156.68 C-60.18 143.33 -83.29 124.24 -87 102 C-88.55 83.53 -80.54 70.38 -69.07 56.44 C-62.98 49.26 -56.58 42.49 -49.94 35.81 C-49.28 35.15 -48.62 34.48 -47.94 33.8 C-44.01 29.88 -39.97 26.16 -35.78 22.54 C-33.64 20.68 -31.57 18.75 -29.5 16.81 C-8.06 -2.58 -8.06 -2.58 0 0 Z M-11 10.75 C-11.78 11.4 -12.56 12.05 -13.36 12.72 C-14.23 13.47 -15.1 14.23 -16 15 C-17.49 16.24 -17.49 16.24 -19.02 17.5 C-58.32 48.67 -58.32 48.67 -80.42 91.62 C-81.22 106.55 -72.16 118.22 -62.81 128.88 C-61.22 130.59 -59.62 132.3 -58 134 C-57.52 134.5 -57.05 135.01 -56.56 135.52 C-42.7 150.94 -42.7 150.94 -25.25 160.62 C-20.93 159.8 -19.54 158.15 -16.85 154.76 C3.07 125.05 8.52 83.93 7 49 C6.97 47.85 6.94 46.69 6.91 45.5 C6.6 38.74 5.6 32.24 4.19 25.62 C4.03 24.89 3.88 24.15 3.72 23.39 C2.57 18.31 1.1 13.26 -2 9 C-5.97 7.14 -7.79 8.02 -11 10.75 Z " fill="#FB4000" transform="translate(670,471)"/>
<path d="M0 0 C13.19 10.93 16.05 34.79 19.32 50.7 C20 53.98 20.74 57.25 21.49 60.52 C24.46 73.47 27.15 86.44 29.56 99.5 C29.7 100.21 29.83 100.92 29.97 101.65 C33.37 119.85 33.37 119.85 30.94 125.94 C25.22 131.91 17.61 135.22 9.38 135.6 C6.88 135.84 4.81 136.54 2.44 137.38 C-6.55 140.2 -15.32 139.37 -24.2 136.59 C-26.72 135.84 -29.16 135.37 -31.75 134.94 C-45.96 132.16 -57.27 124.39 -65.81 112.81 C-68.87 107.47 -69.55 101.91 -68.81 95.81 C-67.56 91.46 -65.9 87.31 -64.19 83.12 C-63.73 81.97 -63.27 80.81 -62.79 79.62 C-61.48 76.34 -60.15 73.07 -58.81 69.81 C-58.5 69.06 -58.2 68.31 -57.88 67.54 C-56.25 63.6 -54.54 59.7 -52.81 55.81 C-52.17 54.32 -51.53 52.82 -50.88 51.33 C-47.69 43.95 -44.5 36.81 -40.16 30.02 C-38.76 27.72 -37.63 25.38 -36.5 22.94 C-32.33 14.39 -25.34 2.75 -16.06 -0.5 C-10.61 -1.57 -5.2 -2.2 0 0 Z M-18.75 9.63 C-33.73 25.54 -42.79 48.14 -50.78 68.21 C-51.52 70.08 -52.27 71.94 -53.03 73.79 C-54.31 76.96 -55.56 80.13 -56.81 83.31 C-57.21 84.29 -57.61 85.27 -58.02 86.28 C-60.69 93.23 -62.76 100.87 -59.91 108.1 C-53.56 119.76 -41.79 124.88 -29.75 128.81 C-12.5 133.8 4.92 132.7 21.19 124.81 C23.28 123.17 24.1 122.35 24.54 119.69 C24.39 113.49 23.67 107.59 22.5 101.5 C22.32 100.53 22.14 99.57 21.96 98.58 C21.38 95.47 20.79 92.36 20.19 89.25 C19.98 88.18 19.78 87.12 19.57 86.02 C15.24 63.29 10.59 40.6 3.44 18.56 C3.03 17.31 3.03 17.31 2.62 16.03 C1.1 11.63 -0.5 8.21 -3.81 4.81 C-10.08 2.45 -14.26 5.42 -18.75 9.63 Z " fill="#FB4100" transform="translate(261.8125,403.1875)"/>
<path d="M0 0 C5.48 0.47 5.48 0.47 7.7 2.73 C8.17 3.54 8.64 4.35 9.12 5.19 C9.71 6.18 10.3 7.17 10.9 8.19 C13.05 12.04 15.12 15.94 17.21 19.83 C17.72 20.77 18.23 21.72 18.75 22.69 C19.26 23.64 19.78 24.6 20.31 25.58 C27.04 37.95 35.05 49.14 44 60 C45.3 61.62 46.59 63.24 47.88 64.88 C48.71 65.92 48.71 65.92 49.55 66.99 C52.07 70.48 53.25 73.12 53.27 77.45 C53.29 78.77 53.29 78.77 53.3 80.11 C53.3 81.05 53.3 81.99 53.3 82.96 C53.31 83.94 53.31 84.93 53.31 85.94 C53.32 88.02 53.32 90.1 53.32 92.19 C53.31 95.33 53.34 98.47 53.36 101.61 C53.4 113.71 52.82 124.64 48.92 136.2 C48.03 138.92 47.72 141.3 47.44 144.12 C46.86 147.18 46.55 148.55 44.12 150.53 C39.49 152.73 35.09 153.91 30 153 C18.21 147.82 10.67 134.69 5.83 123.29 C1.71 111.97 0.15 100.82 -0.69 88.88 C-0.81 87.26 -0.93 85.65 -1.05 84.04 C-2.26 67.42 -2.73 50.79 -2.97 34.13 C-3 32.03 -3.04 29.94 -3.08 27.84 C-3.16 24.06 -3.21 20.28 -3.25 16.5 C-3.28 14.84 -3.28 14.84 -3.32 13.16 C-3.35 4.02 -3.35 4.02 0 0 Z M5 15 C1.8 18.2 2.93 27.25 2.93 31.53 C2.95 33.52 2.98 35.51 3.02 37.51 C3.03 38.59 3.05 39.67 3.07 40.79 C3.1 43.08 3.14 45.37 3.19 47.65 C3.25 51.07 3.29 54.48 3.33 57.89 C4.03 103.32 4.03 103.32 25.41 141.53 C28.35 144.34 30.29 145.95 34.38 146.06 C40.61 143.54 43.28 137.79 45.81 131.88 C48.52 125.12 49.13 119.69 48.69 112.44 C48.64 111.59 48.59 110.74 48.54 109.86 C48.43 107.97 48.31 106.08 48.2 104.18 C48.06 101.93 47.93 99.68 47.8 97.42 C47.59 93.66 47.36 89.89 47.12 86.12 C47.03 84.32 47.03 84.32 46.92 82.47 C46.31 73.15 44.19 68.02 37.94 61.06 C28.52 50.23 21.3 38.03 14.02 25.7 C13.54 24.89 13.06 24.08 12.57 23.24 C11.93 22.16 11.93 22.16 11.28 21.05 C9.95 18.92 8.62 16.92 7 15 C6.34 15 5.68 15 5 15 Z " fill="#FB4000" transform="translate(45,502)"/>
<path d="M0 0 C3.36 2.37 4.66 5.34 5.47 9.29 C5.75 13.42 5.3 15.52 3.06 19.06 C-0.47 21.29 -2.59 21.8 -6.71 21.54 C-10.87 20.56 -13.65 18.57 -16 15 C-16.81 11.82 -16.76 9.18 -16 6 C-12.02 -0.37 -7.2 -1.34 0 0 Z " fill="#000000" transform="translate(280,641)"/>
<path d="M0 0 C3.43 2.42 5.57 5.19 6.55 9.29 C6.8 13.47 6.35 15.5 3.94 19 C0.36 21.44 -1.67 22.07 -6 22 C-9.98 20.48 -12.61 18.59 -15 15 C-15.46 10.03 -15.17 6.93 -12 3 C-8.1 -0.14 -4.94 -0.87 0 0 Z " fill="#000000" transform="translate(476,642)"/>
</svg>
